PathFileType	4	(X/Y/Z)	./resultDataOpenSim/trcMotMarkerGrf/sub09/qtm-02-01.trc
DataRate	CameraRate	NumFrames	NumMarkers	Units	OrigDataRate	OrigDataStartFrame	OrigNumFrames
250.000000	250.000000	11	24	m	250.000000	61	486
Frame#	Time	L.Toe.Tip			R.Toe.Tip			L.Ankle.Lat			R.Ankle.Lat			L.Ankle.Med			R.Ankle.Med			L.Heel			R.Heel			L.Knee.Lat			R.Knee.Lat			L.Knee.Med			R.Knee.Med			L.Thigh.Upper			R.Thigh.Upper			L.ASIS			R.ASIS			V.Sacral			L.Acromium			R.Acromium			C7			L.Elbow			R.Elbow			L.Wrist.Lat			R.Wrist.Lat
		X1	Y1	Z1	X2	Y2	Z2	X3	Y3	Z3	X4	Y4	Z4	X5	Y5	Z5	X6	Y6	Z6	X7	Y7	Z7	X8	Y8	Z8	X9	Y9	Z9	X10	Y10	Z10	X11	Y11	Z11	X12	Y12	Z12	X13	Y13	Z13	X14	Y14	Z14	X15	Y15	Z15	X16	Y16	Z16	X17	Y17	Z17	X18	Y18	Z18	X19	Y19	Z19	X20	Y20	Z20	X21	Y21	Z21	X22	Y22	Z22	X23	Y23	Z23	X24	Y24	Z24

61	0.24	-1.3278174	0.096507177	-0.034572197	-0.63218279	0.039761252	0.089615306	-1.3459468	0.25369627	-0.072926869	-0.77995973	0.053500111	0.12598954	-1.3175682	0.23536269	0.01905242	-0.77157929	0.093007265	0.035031838	-1.4057906	0.29929912	-0.022820724	-0.8479162	0.030810255	0.077169849	-0.97451899	0.43034255	-0.10086799	-0.73331881	0.50702315	0.18644432	-0.9593863	0.41626227	0.024200729	-0.75106582	0.49453082	0.059639837	-0.95684094	0.83787623	-0.12181666	-0.91918843	0.86841741	0.24959031	-0.86562911	0.92549326	-0.072228174	-0.84285455	0.95354574	0.16681586	-1.0244439	0.99452255	0.055885071	-0.86333142	1.3920984	-0.10702883	-0.8887395	1.3984472	0.22122246	-0.94065968	1.4474052	0.057287457	-0.98450047	1.0370807	-0.17144856	-1.0231904	1.0613592	0.29921575	-0.77471821	0.86551899	-0.16168053	-0.89547375	0.82030896	0.32504461
62	0.244	-1.3137198	0.097869399	-0.035804416	-0.63225088	0.039762213	0.089510836	-1.3328791	0.25498286	-0.072571501	-0.78008895	0.053527296	0.12600092	-1.3047736	0.23639202	0.019308122	-0.77175389	0.093005482	0.034998859	-1.3931837	0.3000409	-0.022282244	-0.84802955	0.030834419	0.077180799	-0.9619176	0.43139881	-0.10015315	-0.73056358	0.50681646	0.18646903	-0.94674554	0.41710139	0.025063727	-0.74855008	0.49435147	0.059777701	-0.9506584	0.83906592	-0.12168521	-0.91507559	0.86980873	0.24941253	-0.86019878	0.92695326	-0.072122891	-0.83666748	0.95503164	0.16686356	-1.018801	0.99604996	0.056055557	-0.85785132	1.3934413	-0.10702306	-0.88255592	1.3999496	0.22130808	-0.93501548	1.4489623	0.056995807	-0.97915753	1.0385445	-0.17087116	-1.0167972	1.0627105	0.29974643	-0.77129708	0.86493319	-0.1619687	-0.88783474	0.82211997	0.32519157
63	0.248	-1.2993364	0.099018813	-0.036919258	-0.63232451	0.039766045	0.089436666	-1.3196485	0.25594964	-0.07222829	-0.78021312	0.05356218	0.12602105	-1.2920414	0.23713353	0.019681961	-0.77194444	0.093014249	0.035013397	-1.3804266	0.30043291	-0.021747043	-0.84812095	0.030864549	0.077186337	-0.94937361	0.43262023	-0.099422059	-0.72786941	0.5066413	0.18651589	-0.93411042	0.41808999	0.025963628	-0.7462325	0.49419865	0.060137485	-0.94447704	0.84032321	-0.12152402	-0.90986407	0.87140297	0.24949865	-0.85470912	0.92851616	-0.071978502	-0.83078863	0.95650511	0.16688136	-1.0131422	0.9975909	0.056311772	-0.85246715	1.3948529	-0.10702314	-0.87641463	1.4015102	0.22139403	-0.92930877	1.4505124	0.056887285	-0.97386758	1.0400694	-0.17026389	-1.0104355	1.0641215	0.30028767	-0.76795105	0.86444504	-0.16223919	-0.88025407	0.82400504	0.32532955
64	0.252	-1.2846657	0.099958729	-0.037894054	-0.63239762	0.039770567	0.089404743	-1.3062928	0.25661526	-0.07190548	-0.78031997	0.0535965	0.12605192	-1.27937	0.23758108	0.020184236	-0.77210498	0.093035073	0.035069606	-1.3675795	0.30053542	-0.02121634	-0.84818304	0.030903663	0.077183252	-0.93683094	0.43398588	-0.098680745	-0.7251556	0.50647672	0.18653792	-0.9215062	0.41923774	0.026895131	-0.74408161	0.49407604	0.060678201	-0.93828388	0.84164077	-0.12129699	-0.90387184	0.8731215	0.24976772	-0.84907697	0.93018412	-0.071788521	-0.8252965	0.9579404	0.16685876	-1.0074076	0.99914428	0.056742523	-0.84711813	1.3963231	-0.10701568	-0.87032054	1.4031173	0.22148457	-0.92353419	1.4520507	0.05695695	-0.96862647	1.0416566	-0.16962939	-1.0041107	1.065591	0.30084511	-0.76467399	0.86405348	-0.16249306	-0.87273801	0.82596277	0.32545729
65	0.256	-1.269755	0.10066562	-0.038680987	-0.63246837	0.039775408	0.089418547	-1.2928273	0.25701244	-0.071611608	-0.78039717	0.053624918	0.12608781	-1.2666212	0.23774497	0.020742488	-0.7721991	0.093075595	0.035157284	-1.3546929	0.30037362	-0.020711846	-0.84821841	0.030957037	0.077173914	-0.92427084	0.43547584	-0.097928787	-0.72243071	0.50629557	0.18651384	-0.90893797	0.42055998	0.027833855	-0.74200022	0.49398888	0.061240871	-0.93207753	0.84303151	-0.12102578	-0.89760658	0.87486499	0.2500977	-0.84323509	0.93196501	-0.071550752	-0.82005911	0.95934106	0.16681868	-1.0015802	1.0007251	0.057353499	-0.84171012	1.3978461	-0.10698236	-0.86427456	1.4047673	0.22157862	-0.91773914	1.4536038	0.057106076	-0.96343	1.0433075	-0.16897855	-0.99781409	1.0671156	0.30141382	-0.76145394	0.86376378	-0.1627313	-0.86528374	0.82799104	0.32557473
66	0.26	-1.2546785	0.10111606	-0.039218276	-0.63253628	0.039782484	0.089469737	-1.2792487	0.25716647	-0.071337432	-0.78043834	0.053648321	0.12612157	-1.2532563	0.23768082	0.021142798	-0.77222923	0.093141677	0.035268134	-1.3417329	0.29991415	-0.020314007	-0.84823574	0.031027818	0.077164179	-0.91176095	0.43708382	-0.097162295	-0.71981242	0.50608975	0.18648988	-0.89653107	0.42205846	0.028764677	-0.73993317	0.4939325	0.061705117	-0.92586335	0.84451364	-0.12076013	-0.89136885	0.87658058	0.25041876	-0.8372499	0.93385173	-0.07127679	-0.81481758	0.96073054	0.16680434	-0.99577601	1.0023386	0.057901373	-0.83622706	1.3994173	-0.10692159	-0.85827092	1.4064647	0.22167151	-0.91195634	1.4551911	0.057272892	-0.95827658	1.0450189	-0.16831757	-0.99153394	1.0686921	0.30198989	-0.75828387	0.86358216	-0.16295436	-0.85788278	0.83008234	0.32568493
67	0.264	-1.2394336	0.10132554	-0.039502001	-0.63260233	0.039793679	0.089544776	-1.2655525	0.25707889	-0.07107347	-0.78044784	0.053670635	0.12615133	-1.2388042	0.23747564	0.021198312	-0.77222371	0.093232757	0.035396212	-1.32864	0.29910018	-0.020104553	-0.84824296	0.031110944	0.07715634	-0.89933035	0.43880957	-0.096372906	-0.71742098	0.50587442	0.18653417	-0.88445968	0.42372707	0.029689525	-0.73790273	0.49388953	0.062073589	-0.91966106	0.84609362	-0.12054304	-0.8852484	0.87825664	0.2507115	-0.83135465	0.93579817	-0.071005438	-0.80941356	0.96212232	0.16683867	-0.99015228	1.0039709	0.058076434	-0.83078562	1.4010297	-0.10685881	-0.85229454	1.4082075	0.22175729	-0.90618839	1.4568088	0.057440105	-0.95316791	1.0467828	-0.16764234	-0.98526811	1.0703151	0.30257524	-0.75516967	0.86350724	-0.16316954	-0.85052891	0.83222595	0.32579011
68	0.268	-1.2238829	0.10135501	-0.039627491	-0.63267041	0.039808897	0.089634224	-1.2517408	0.25673221	-0.07082849	-0.78043957	0.053693266	0.12617981	-1.2236119	0.23716973	0.021006982	-0.77220948	0.09334266	0.035534848	-1.3154101	0.29790625	-0.020099913	-0.84824525	0.031196234	0.077147082	-0.88688882	0.44065857	-0.095553682	-0.71526874	0.50567455	0.18667094	-0.87272039	0.42557232	0.030600133	-0.73592049	0.49384644	0.062371228	-0.9135176	0.84775834	-0.12039088	-0.87925859	0.8798945	0.25097597	-0.82574536	0.93774723	-0.07077443	-0.80387511	0.96351105	0.16691061	-0.98463347	1.0056071	0.058037017	-0.8254952	1.4026737	-0.10681779	-0.84632794	1.4099809	0.22183059	-0.90043581	1.4584479	0.057568286	-0.94810904	1.0485902	-0.16695073	-0.97901826	1.0719724	0.30316975	-0.75211829	0.86352975	-0.16338999	-0.84321841	0.83441592	0.32588545
69	0.272	-1.2078798	0.10126426	-0.03970735	-0.63274591	0.039826164	0.089736413	-1.237811	0.25611265	-0.070616808	-0.78043176	0.053713945	0.12621162	-1.2085447	0.23673547	0.020865438	-0.77219886	0.093461785	0.035676312	-1.3021173	0.29636028	-0.02022134	-0.84824788	0.031277659	0.077133725	-0.87439609	0.44265149	-0.094725507	-0.71327669	0.50550233	0.18687734	-0.86104972	0.42763391	0.031441661	-0.73393503	0.49380591	0.062562595	-0.90750618	0.84947539	-0.12030279	-0.87342009	0.88149045	0.25121348	-0.82039077	0.93968202	-0.070580064	-0.79830499	0.96488759	0.16700434	-0.97888454	1.0072421	0.058418805	-0.8203268	1.4043402	-0.10679774	-0.84036595	1.4117712	0.22189033	-0.89471733	1.4601095	0.057574247	-0.94310488	1.0504316	-0.16624721	-0.97278438	1.07365	0.30377045	-0.74912139	0.86363744	-0.16362462	-0.83594078	0.83665271	0.32595815
70	0.276	-1.1914163	0.10106505	-0.039773866	-0.63283338	0.039843474	0.089854184	-1.2237549	0.25522313	-0.070438701	-0.78044085	0.053729457	0.1262523	-1.1940164	0.23613057	0.020930359	-0.77219029	0.093580962	0.035816351	-1.288851	0.2945021	-0.020356225	-0.84825686	0.03135532	0.077119522	-0.86195056	0.44480952	-0.093968482	-0.71134587	0.50534286	0.1871066	-0.84917213	0.42997222	0.032133654	-0.73189615	0.49377653	0.062605897	-0.90168178	0.85121004	-0.12028094	-0.8677657	0.88303163	0.25142158	-0.81511448	0.94162584	-0.070384266	-0.79276788	0.9662487	0.16712434	-0.97268356	1.0088728	0.059562776	-0.8151943	1.406022	-0.10679068	-0.83441823	1.4135777	0.22194102	-0.88904885	1.4617916	0.05741587	-0.93815567	1.0522961	-0.16553165	-0.9665683	1.0753407	0.30437753	-0.74615972	0.86381868	-0.1638747	-0.828675	0.83893434	0.32599773
71	0.28	-1.1745881	0.10073044	-0.039794954	-0.6329375	0.039860551	0.089991447	-1.2095792	0.25407605	-0.070279714	-0.78047529	0.053739003	0.12630489	-1.179842	0.23532422	0.021150522	-0.77217993	0.093696074	0.035958862	-1.2756278	0.29233406	-0.020451715	-0.8482759	0.031429846	0.077112653	-0.84958678	0.44713287	-0.093389635	-0.70943026	0.50517286	0.18732105	-0.8371201	0.43257452	0.032699743	-0.72986489	0.4937517	0.062574586	-0.89595646	0.85296271	-0.12029831	-0.86231286	0.88450492	0.25159773	-0.80977577	0.94360246	-0.070154576	-0.78727983	0.96759496	0.16728639	-0.96624138	1.0104941	0.061001614	-0.81006499	1.4077127	-0.10679843	-0.82849326	1.415404	0.22198646	-0.88341109	1.4634699	0.057182821	-0.93326338	1.0541792	-0.16480373	-0.96037324	1.0770431	0.30499192	-0.7432229	0.86406816	-0.16414103	-0.82139644	0.84124928	0.32600724
